<?xml version="1.0" standalone="no"?>
<!DOCTYPE svg PUBLIC "-//W3C//DTD SVG 20010904//EN"
 "http://www.w3.org/TR/2001/REC-SVG-20010904/DTD/svg10.dtd">
<svg version="1.0" xmlns="http://www.w3.org/2000/svg"
 width="807.000000pt" height="237.000000pt" viewBox="0 0 807.000000 237.000000"
 preserveAspectRatio="xMidYMid meet">
<metadata>
Created by potrace 1.15, written by Peter Selinger 2001-2017
</metadata>
<g transform="translate(0.000000,237.000000) scale(0.100000,-0.100000)"
fill="#fe4404" stroke="none">
<path d="M801 2049 c-429 -66 -731 -482 -657 -906 20 -113 42 -175 102 -278
82 -140 227 -265 377 -325 272 -109 585 -60 810 126 121 99 218 250 258 400
28 103 30 287 5 389 -22 92 -94 234 -159 314 -97 120 -272 231 -417 265 -85
20 -238 27 -319 15z m265 -353 c101 -46 159 -120 171 -214 9 -81 -10 -129 -97
-237 -50 -63 -67 -109 -48 -132 17 -21 19 -122 2 -147 -7 -10 -10 -25 -7 -32
7 -18 -23 -64 -41 -64 -8 0 -28 -14 -44 -30 -43 -42 -102 -42 -142 0 -15 17
-35 30 -42 30 -22 0 -45 31 -52 70 -15 75 -15 155 -1 176 12 19 11 27 -9 70
-13 27 -43 73 -68 102 -70 82 -87 174 -47 262 69 153 264 220 425 146z"/>
<path d="M847 1626 c-122 -45 -173 -161 -111 -252 15 -21 39 -54 55 -72 32
-37 63 -93 73 -134 6 -27 9 -28 66 -28 57 0 60 1 66 28 11 45 39 93 93 161 57
71 66 94 58 151 -11 85 -94 150 -200 156 -38 3 -76 -1 -100 -10z"/>
<path d="M2090 1310 l0 -411 83 3 82 3 0 405 0 405 -82 3 -83 3 0 -411z"/>
<path d="M2300 1640 l0 -80 110 0 110 0 0 -330 0 -331 78 3 77 3 3 328 2 327
110 0 110 0 0 80 0 80 -300 0 -300 0 0 -80z"/>
<path d="M3034 1706 c-3 -7 -4 -42 -2 -77 l3 -64 107 -3 108 -3 2 -327 3 -327
78 -3 77 -3 0 331 0 330 110 0 110 0 0 80 0 80 -295 0 c-240 0 -297 -3 -301
-14z"/>
<path d="M5347 1713 c-4 -3 -7 -39 -7 -80 l0 -73 110 0 110 0 2 -327 3 -328
78 -3 77 -3 0 331 0 330 110 0 110 0 0 80 0 80 -293 0 c-162 0 -297 -3 -300
-7z"/>
<path d="M5980 1640 l0 -80 80 0 80 0 0 80 0 80 -80 0 -80 0 0 -80z"/>
<path d="M3846 1489 c-64 -10 -124 -53 -156 -109 -23 -42 -25 -54 -25 -186 0
-139 0 -141 30 -189 45 -72 112 -105 215 -105 103 0 170 33 215 105 28 45 30
56 34 168 2 73 -1 135 -9 162 -33 116 -156 179 -304 154z m136 -179 c14 -18
18 -41 18 -111 0 -78 -3 -91 -24 -116 -19 -22 -32 -28 -66 -28 -34 0 -47 6
-66 28 -21 25 -24 38 -24 107 0 87 11 122 44 139 32 16 98 6 118 -19z"/>
<path d="M4542 1490 c-19 -4 -47 -20 -63 -36 l-29 -28 0 32 0 32 -80 0 -80 0
0 -290 0 -290 80 0 80 0 0 190 c0 189 0 191 25 215 38 39 106 31 130 -16 12
-21 15 -70 15 -209 l0 -180 80 0 80 0 0 180 c0 225 9 250 91 250 18 0 39 -10
54 -25 25 -24 25 -26 25 -215 l0 -190 86 0 86 0 -4 208 c-4 196 -5 210 -30
263 -29 63 -65 94 -129 108 -73 16 -161 -16 -190 -71 -11 -20 -12 -20 -45 16
-47 51 -115 72 -182 56z"/>
<path d="M6518 1490 c-15 -4 -41 -18 -57 -29 l-30 -21 -3 22 c-3 21 -9 23 -80
26 l-78 3 0 -411 0 -410 80 0 80 0 0 140 0 139 36 -24 c28 -19 50 -25 91 -25
61 0 84 9 131 53 46 44 62 107 62 242 0 119 -13 184 -49 233 -34 49 -125 79
-183 62z m52 -178 c17 -21 20 -40 20 -119 0 -86 -2 -96 -25 -118 -31 -32 -86
-34 -115 -5 -17 17 -20 33 -20 123 0 75 4 108 15 124 27 38 93 36 125 -5z"/>
<path d="M7044 1490 c-63 -9 -119 -35 -144 -68 -46 -57 -49 -165 -8 -218 29
-37 72 -52 189 -69 101 -14 129 -25 129 -51 0 -40 -136 -46 -225 -9 -33 14
-62 21 -65 17 -4 -4 -26 -31 -49 -60 -42 -51 -43 -54 -25 -67 73 -56 275 -83
370 -51 90 31 134 88 134 176 0 113 -53 159 -208 180 -101 13 -132 24 -132 45
0 34 115 38 197 7 l51 -19 34 41 c64 79 62 72 26 94 -71 43 -183 65 -274 52z"/>
<path d="M5980 1195 l0 -296 78 3 77 3 3 293 2 292 -80 0 -80 0 0 -295z"/>
</g>
</svg>
