<?xml version="1.0" standalone="no"?>
<!DOCTYPE svg PUBLIC "-//W3C//DTD SVG 20010904//EN"
 "http://www.w3.org/TR/2001/REC-SVG-20010904/DTD/svg10.dtd">
<svg version="1.0" xmlns="http://www.w3.org/2000/svg"
 width="1442.000000pt" height="297.000000pt" viewBox="0 0 1442.000000 297.000000"
 preserveAspectRatio="xMidYMid meet">
<metadata>
Created by potrace 1.15, written by Peter Selinger 2001-2017
</metadata>
<g transform="translate(0.000000,297.000000) scale(0.100000,-0.100000)"
fill="#FE4404" stroke="none">
<path d="M11015 2847 c-42 -19 -92 -79 -104 -124 -14 -51 -14 -146 1 -195 13
-45 77 -122 119 -144 50 -25 129 -36 185 -24 152 32 241 172 200 314 -19 66
-70 127 -130 159 -52 27 -223 35 -271 14z"/>
<path d="M127 2694 c-4 -42 -7 -493 -7 -1001 0 -1006 -2 -972 56 -1010 24 -16
50 -18 194 -18 180 0 199 5 225 55 13 26 15 147 13 1010 l-3 980 -28 27 -27
28 -209 3 -208 3 -6 -77z"/>
<path d="M745 2666 c-11 -153 -4 -239 21 -273 37 -50 52 -53 302 -53 l232 0 0
-785 c0 -853 -1 -834 55 -871 19 -13 54 -19 130 -22 146 -6 229 4 263 33 l27
23 5 809 5 808 248 5 249 5 29 33 29 32 0 141 c0 159 -9 190 -61 208 -22 8
-258 11 -780 11 l-747 0 -7 -104z"/>
<path d="M3055 2664 c-9 -129 -3 -242 15 -270 29 -46 43 -49 295 -54 l240 -5
5 -795 c5 -736 6 -798 22 -823 32 -47 52 -52 213 -52 172 0 198 5 222 42 17
25 18 85 23 828 l5 800 240 5 c325 7 319 2 313 232 -3 135 -3 138 -31 165
l-27 28 -764 3 -764 2 -7 -106z"/>
<path d="M9236 2709 c-3 -34 -6 -110 -6 -170 0 -195 -4 -192 315 -199 l240 -5
5 -800 c3 -440 9 -808 13 -817 19 -38 57 -51 172 -56 156 -7 219 3 258 38 l32
28 5 804 5 803 240 5 c132 3 248 9 257 14 40 19 52 57 56 176 5 143 -7 193
-51 220 -31 19 -56 20 -783 20 l-751 0 -7 -61z"/>
<path d="M4935 2220 c-252 -54 -447 -237 -510 -477 -39 -147 -44 -429 -10
-558 9 -33 37 -103 62 -155 38 -79 59 -108 132 -180 69 -69 103 -95 171 -128
136 -67 219 -85 395 -85 176 0 258 18 395 84 69 34 102 59 176 133 78 78 98
105 137 186 65 136 78 190 84 370 6 199 -13 305 -83 448 -85 175 -244 305
-439 358 -97 27 -395 29 -510 4z m392 -411 c90 -43 145 -141 164 -288 15 -114
3 -194 -43 -290 -80 -168 -254 -236 -406 -160 -133 66 -197 232 -171 441 27
222 151 337 344 323 40 -3 88 -14 112 -26z"/>
<path d="M6764 2221 c-34 -10 -83 -30 -109 -45 -48 -28 -48 -28 -64 -8 -31 38
-54 42 -249 42 l-189 0 -7 -77 c-3 -42 -6 -366 -6 -720 0 -699 0 -693 55 -729
31 -20 185 -31 291 -19 55 6 73 12 96 35 l28 28 0 394 c0 229 4 420 11 458 12
79 51 169 87 203 90 86 226 65 279 -43 37 -75 43 -155 43 -585 0 -390 1 -412
20 -442 11 -18 32 -36 47 -40 15 -5 93 -8 173 -8 172 0 203 10 220 74 6 25 10
186 10 428 -1 412 3 451 50 543 66 129 204 167 291 81 61 -61 62 -68 68 -581
5 -421 8 -468 23 -493 32 -47 51 -52 218 -52 170 0 200 8 220 61 14 36 13 957
-1 1047 -23 147 -87 279 -170 351 -97 84 -202 116 -379 116 -179 0 -285 -36
-386 -132 l-53 -50 -56 50 c-114 101 -206 132 -385 131 -78 0 -135 -6 -176
-18z"/>
<path d="M12332 2230 c-50 -11 -140 -50 -181 -79 l-28 -20 -14 25 c-25 48 -52
54 -257 54 l-189 0 -7 -77 c-3 -42 -6 -510 -6 -1040 0 -1033 -1 -1002 50
-1048 20 -18 36 -20 192 -20 l170 0 29 33 29 32 0 318 c0 175 3 321 6 325 3 3
34 -10 67 -28 85 -47 163 -65 278 -65 355 0 606 232 675 625 20 116 18 329 -5
440 -54 264 -198 439 -420 512 -55 18 -323 27 -389 13z m162 -404 c108 -33
168 -124 188 -283 10 -78 9 -103 -5 -168 -34 -158 -98 -255 -202 -306 -55 -27
-73 -31 -119 -27 -109 9 -202 98 -227 215 -7 36 -10 111 -7 198 4 133 6 144
35 205 47 96 85 134 165 161 64 22 110 24 172 5z"/>
<path d="M13670 2226 c-187 -42 -330 -136 -381 -251 -29 -66 -44 -219 -29
-302 33 -191 138 -292 426 -408 224 -91 254 -115 219 -169 -32 -49 -138 -81
-240 -72 -82 6 -124 20 -236 75 -54 27 -89 39 -104 35 -13 -3 -32 -1 -43 5
-18 9 -20 6 -26 -51 -3 -33 -6 -115 -6 -182 0 -172 15 -192 171 -236 246 -68
558 -40 734 65 194 116 279 323 216 524 -51 163 -161 259 -415 358 -167 65
-212 90 -227 124 -10 26 -9 34 8 57 27 37 73 51 173 51 102 1 148 -9 235 -49
79 -36 105 -37 142 -6 28 24 28 24 31 168 4 204 -8 219 -196 258 -116 23 -359
27 -452 6z"/>
<path d="M10926 2133 c-3 -42 -6 -366 -6 -720 0 -699 0 -693 55 -729 20 -13
54 -19 135 -22 154 -6 217 3 252 38 l28 28 0 709 c0 656 -2 710 -18 729 -32
40 -54 44 -250 44 l-189 0 -7 -77z"/>
</g>
</svg>
